<svg width="121" height="121" fill="none" xmlns="http://www.w3.org/2000/svg"><path d="M43.532 57.802a12.128 12.128 0 0 0 2.951-7.94c0-6.716-5.463-12.18-12.179-12.18s-12.18 5.464-12.18 12.18c0 3.03 1.114 5.806 2.952 7.94-4.27 2.284-7.182 6.789-7.182 11.96v10.64a2.916 2.916 0 0 0 2.916 2.915h26.988a2.916 2.916 0 0 0 2.916-2.916V69.763c0-5.172-2.911-9.677-7.182-11.961zm-9.228-14.287c3.5 0 6.347 2.847 6.347 6.346a6.354 6.354 0 0 1-6.282 6.347h-.13a6.355 6.355 0 0 1-6.282-6.347c0-3.5 2.847-6.346 6.347-6.346zm10.578 33.97H23.727v-7.722c0-4.259 3.464-7.723 7.722-7.723h5.712c4.259 0 7.723 3.464 7.723 7.723v7.722zM63.43 47.653a2.916 2.916 0 0 1 2.916-2.916H82.11a2.916 2.916 0 1 1 0 5.832H66.346a2.916 2.916 0 0 1-2.916-2.916zm45.225-33.257H12.344C5.537 14.396 0 19.934 0 26.74v67.52c0 6.806 5.537 12.344 12.344 12.344h96.311c6.807 0 12.344-5.538 12.344-12.345V26.74c.001-6.805-5.537-12.343-12.344-12.343zm6.513 79.863a6.52 6.52 0 0 1-6.513 6.513h-6.964l1.573-2.972a2.916 2.916 0 1 0-5.153-2.729l-3.019 5.701h-8.708l1.574-2.972a2.916 2.916 0 0 0-5.154-2.729l-3.02 5.701h-8.707L72.65 97.8a2.916 2.916 0 0 0-5.154-2.729l-3.018 5.701H55.77l1.573-2.972a2.916 2.916 0 1 0-5.154-2.729l-3.019 5.701h-8.708l1.574-2.972a2.916 2.916 0 1 0-5.154-2.729l-3.019 5.701h-8.706L26.73 97.8a2.916 2.916 0 1 0-5.154-2.729l-3.019 5.701h-6.213a6.52 6.52 0 0 1-6.512-6.513V26.74a6.52 6.52 0 0 1 6.512-6.511h6.965l-1.573 2.97a2.916 2.916 0 0 0 5.154 2.73l3.019-5.7h8.707l-1.573 2.97a2.916 2.916 0 0 0 5.154 2.73l3.018-5.7h8.708L48.35 23.2a2.916 2.916 0 0 0 5.154 2.73l3.018-5.701h8.708l-1.573 2.97a2.916 2.916 0 0 0 5.154 2.73l3.019-5.7h8.707l-1.573 2.97a2.916 2.916 0 0 0 5.154 2.73l3.019-5.7h8.708l-1.573 2.97a2.916 2.916 0 0 0 5.154 2.73l3.018-5.7h6.213a6.52 6.52 0 0 1 6.513 6.512v67.52h-.002zm-11.565-20.913a2.915 2.915 0 0 1-2.916 2.916h-34.34a2.916 2.916 0 1 1 0-5.832h34.34a2.916 2.916 0 0 1 2.916 2.916zm0-11.585a2.916 2.916 0 0 1-2.916 2.916h-34.34a2.916 2.916 0 1 1 0-5.832h34.34a2.916 2.916 0 0 1 2.916 2.916z" fill="#000"/></svg>