<svg width="121" height="121" fill="none" xmlns="http://www.w3.org/2000/svg"><path d="M43.256 96.069C29.69 89.49 20.924 75.504 20.924 60.437c0-13.324 6.645-25.673 17.774-33.033a3.048 3.048 0 1 0-3.364-5.085c-.628.415-1.244.844-1.847 1.287l-6.02-5.052c-3.478-2.918-8.68-2.463-11.598 1.014l-3.428 4.086a8.175 8.175 0 0 0-1.89 6.009 8.174 8.174 0 0 0 2.904 5.59l6.031 5.06a45.532 45.532 0 0 0-3.362 9.288H8.232C3.692 49.601 0 53.294 0 57.833v5.335c0 4.539 3.693 8.231 8.232 8.231h7.924a45.42 45.42 0 0 0 3.377 9.248l-6.077 5.1a8.174 8.174 0 0 0-2.904 5.59 8.174 8.174 0 0 0 1.888 6.008l3.429 4.088a8.22 8.22 0 0 0 6.313 2.936 8.2 8.2 0 0 0 5.285-1.922l6.1-5.119a45.72 45.72 0 0 0 7.029 4.226 3.049 3.049 0 0 0 2.66-5.485zM8.232 65.303a2.138 2.138 0 0 1-2.135-2.135v-5.335c0-1.177.957-2.135 2.135-2.135h6.84a46.023 46.023 0 0 0 .013 9.605H8.232zm9.141-34.722a2.118 2.118 0 0 1-.748-1.45 2.12 2.12 0 0 1 .486-1.558l3.428-4.086a2.13 2.13 0 0 1 1.637-.762c.485 0 .972.164 1.371.498l5.208 4.37a45.61 45.61 0 0 0-6.17 7.361l-5.212-4.373zm6.175 67.196a2.14 2.14 0 0 1-3.009-.263l-3.428-4.087a2.118 2.118 0 0 1-.486-1.559 2.12 2.12 0 0 1 .75-1.45l5.27-4.422a45.873 45.873 0 0 0 6.183 7.35l-5.28 4.43zm89.22-48.176h-7.886a45.44 45.44 0 0 0-3.358-9.296l6.021-5.053c3.477-2.917 3.932-8.12 1.015-11.597l-3.429-4.087c-2.917-3.477-8.12-3.932-11.597-1.014l-6.02 5.052a46.722 46.722 0 0 0-2.454-1.68 3.048 3.048 0 1 0-3.282 5.138c11.457 7.32 18.297 19.795 18.297 33.373 0 15.373-9.019 29.48-22.976 35.938a3.048 3.048 0 0 0 2.56 5.533 45.383 45.383 0 0 0 7.77-4.584l6.105 5.123a8.16 8.16 0 0 0 6.008 1.889 8.17 8.17 0 0 0 5.589-2.904l3.429-4.086c2.918-3.477 2.463-8.68-1.015-11.597l-6.104-5.123a45.783 45.783 0 0 0 3.385-9.226h7.942c4.539 0 8.232-3.693 8.232-8.232v-5.335c0-4.539-3.693-8.232-8.232-8.232zm-9.141 40.817a2.138 2.138 0 0 1 .263 3.01l-3.429 4.085a2.117 2.117 0 0 1-1.45.748 2.119 2.119 0 0 1-1.558-.485l-5.292-4.44a46.027 46.027 0 0 0 6.173-7.36l5.293 4.442zm-5.201-55.471a45.53 45.53 0 0 0-6.176-7.357l5.203-4.366a2.138 2.138 0 0 1 3.008.263l3.429 4.086a2.139 2.139 0 0 1-.263 3.01l-5.201 4.364zm16.477 28.22a2.137 2.137 0 0 1-2.135 2.136h-6.859a45.17 45.17 0 0 0 .262-4.866 46.54 46.54 0 0 0-.242-4.74h6.839c1.177 0 2.135.959 2.135 2.136v5.335zm-33.882-2.73c0-7.144-3.628-13.665-9.705-17.442a3.048 3.048 0 0 1 3.219-5.178c7.879 4.898 12.583 13.353 12.583 22.62a26.63 26.63 0 0 1-6.312 17.21 3.041 3.041 0 0 1-2.326 1.077 3.048 3.048 0 0 1-2.323-5.02 20.528 20.528 0 0 0 4.864-13.267zm-35.834 13.66a3.048 3.048 0 1 1-4.548 4.061 26.578 26.578 0 0 1-6.756-17.72A26.589 26.589 0 0 1 47.987 36.94a3.048 3.048 0 0 1 2.87 5.379A20.503 20.503 0 0 0 39.98 60.437c0 5.048 1.849 9.9 5.207 13.66zm18.31-3.841a3.07 3.07 0 0 0 .052-.562V31.941l11.06-6.386a3.048 3.048 0 0 0 1.524-2.64V8.386c0-1.09-.581-2.096-1.524-2.64l-6.292-3.633a3.048 3.048 0 1 0-3.048 5.28l4.767 2.752v11.011L60.5 26.661l-9.536-5.505V10.144l4.768-2.752a3.048 3.048 0 1 0-3.048-5.28l-6.292 3.632a3.048 3.048 0 0 0-1.525 2.64v14.532c0 1.089.581 2.095 1.525 2.64l11.06 6.385v37.753c0 .192.018.38.052.562-4.125 1.28-7.13 5.132-7.13 9.672v32.312a7.064 7.064 0 0 0 7.057 7.057h6.137a7.065 7.065 0 0 0 7.057-7.057V79.928c0-4.54-3.003-8.392-7.128-9.672zm1.032 41.984c0 .521-.44.961-.96.961H57.43c-.52 0-.96-.44-.96-.961V79.928A4.033 4.033 0 0 1 60.5 75.9a4.033 4.033 0 0 1 4.029 4.028v32.312z" fill="#000"/></svg>