<svg width="121" height="121" fill="none" xmlns="http://www.w3.org/2000/svg"><g clip-path="url(#clip0)"><path d="M11.164 31.255c3.73 1.644 8.625 2.55 13.783 2.55 5.16 0 10.055-.906 13.784-2.55 6.057-2.67 6.962-6.299 6.962-8.224 0-1.925-.905-5.554-6.962-8.223-3.73-1.644-8.625-2.55-13.784-2.55-5.158 0-10.053.906-13.783 2.55-6.057 2.67-6.961 6.298-6.961 8.223 0 1.925.904 5.554 6.961 8.224zm13.783-13.168c9.108 0 14.917 3.246 14.917 4.944s-5.809 4.945-14.917 4.945c-9.107 0-14.916-3.247-14.916-4.945 0-1.698 5.809-4.944 14.916-4.944zM43.38 37.314a2.915 2.915 0 0 1 .063 4.121c-3.384 3.491-10.471 5.66-18.496 5.66-8.025 0-15.112-2.168-18.496-5.66a2.914 2.914 0 0 1 4.186-4.056c1.814 1.872 7.067 3.888 14.31 3.888s12.496-2.016 14.312-3.889a2.915 2.915 0 0 1 4.12-.064zm2.664 30.7h3.278a2.914 2.914 0 1 1 0 5.828h-3.278a2.914 2.914 0 1 1 0-5.829zm6.604-43.807a2.907 2.907 0 0 1-.207-1.175 2.904 2.904 0 0 1 .637-1.911 237.813 237.813 0 0 1 4.3-5.257c.483-.578.926-1.11 1.334-1.604a2.914 2.914 0 1 1 4.497 3.708 353.109 353.109 0 0 1-1.865 2.24h12.96a2.914 2.914 0 1 1 0 5.829H61.495l.367.44c.487.583.934 1.12 1.346 1.619a2.914 2.914 0 0 1-4.497 3.708c-.405-.491-.845-1.019-1.324-1.593-.593-.71-1.245-1.49-1.96-2.359a249.71 249.71 0 0 1-2.336-2.89 2.916 2.916 0 0 1-.427-.711l-.002-.007v-.002a.04.04 0 0 0-.003-.006l-.001-.002-.002-.005-.002-.004a.017.017 0 0 1-.001-.004l-.003-.005v-.002l-.003-.006zm-31.98 64.041a2.914 2.914 0 0 1-2.914 2.915h-6.636a2.914 2.914 0 1 1 0-5.829h6.636a2.914 2.914 0 0 1 2.914 2.914zm83.642 6.747a2.917 2.917 0 0 1-5.832 0 2.91 2.91 0 0 1 2.91-2.915h.008a2.914 2.914 0 0 1 2.914 2.915zM20.668 77.78a2.914 2.914 0 0 1-2.914 2.915H2.914a2.914 2.914 0 1 1 0-5.829h14.84a2.914 2.914 0 0 1 2.914 2.914zm57.674 14.3H61.516c-1.34-6.186-6.856-10.833-13.437-10.833-6.21 0-11.47 4.138-13.17 9.801a2.296 2.296 0 0 1-.442-.595 1.53 1.53 0 0 1-.168-.688V70.332a2.914 2.914 0 1 0-5.828 0v19.433c0 1.146.263 2.254.78 3.289 1.035 2.079 2.96 3.637 5.296 4.378 1.154 6.422 6.783 11.31 13.532 11.31 6.58 0 12.097-4.648 13.437-10.833h16.826a2.914 2.914 0 1 0 0-5.83zM48.08 102.913c-4.352 0-7.895-3.528-7.919-7.875v-.108c.035-4.338 3.574-7.855 7.919-7.855 4.366 0 7.92 3.553 7.92 7.92 0 4.366-3.553 7.918-7.92 7.918zm72.898-26.51c-.186-8.232-2.064-9.896-9.049-16.085a503.887 503.887 0 0 1-2.623-2.335 84.504 84.504 0 0 1-1.95-1.826c-1.06-1.013-2.156-2.06-3.371-3.077a1328.8 1328.8 0 0 1-2.668-2.243c-10.856-9.14-15.35-12.925-26.597-12.925H54.6a2.914 2.914 0 1 0 0 5.83h20.12c9.12 0 12.028 2.447 22.843 11.554a1096.8 1096.8 0 0 0 2.68 2.253c1.069.895 2.094 1.874 3.086 2.822.679.648 1.38 1.319 2.085 1.95.967.869 1.848 1.649 2.65 2.36 1.545 1.368 2.747 2.434 3.684 3.332H70.351c-.626-.221-2.925-1.614-7.251-5.918-3.435-3.416-5.805-6.324-6.201-7.034a2.914 2.914 0 0 0-5.36 2.29c.836 2.023 5.375 6.826 7.659 9.084 7.496 7.407 9.945 7.407 10.991 7.407h44.833c.075.755.104 1.629.128 2.693.035 1.523.02 4.787.009 7.17l-.008 1.66c-.006 1.24-.012 2.654-.012 4.4 0 .451-.218.888-.583 1.258-1.708-5.65-6.963-9.776-13.164-9.776-7.58 0-13.748 6.167-13.748 13.748 0 7.58 6.167 13.747 13.748 13.747 6.755 0 12.388-4.897 13.535-11.327 3.533-1.147 6.04-4.165 6.04-7.65 0-1.734.007-3.14.013-4.371l.007-1.661c.012-2.552.026-5.727-.01-7.33zm-11.665 18.598c-.004 4.364-3.555 7.913-7.92 7.913-4.366 0-7.92-3.553-7.92-7.919 0-4.367 3.553-7.92 7.92-7.92 4.357 0 7.903 3.537 7.92 7.89a.227.227 0 0 0 0 .036zm-58.315-.006a2.917 2.917 0 0 1-5.833 0 2.911 2.911 0 0 1 2.911-2.915h.008a2.914 2.914 0 0 1 2.914 2.915zm-7.553-40.013c-3.384 3.49-10.472 5.66-18.497 5.66s-15.112-2.169-18.495-5.66a2.915 2.915 0 0 1 4.185-4.057c1.815 1.873 7.067 3.888 14.31 3.888 7.244 0 12.497-2.016 14.312-3.888a2.915 2.915 0 0 1 4.185 4.057z" fill="#000"/></g><defs><clipPath id="clip0"><path fill="#fff" d="M0 0h121v121H0z"/></clipPath></defs></svg>