<svg width="42" height="42" fill="none" xmlns="http://www.w3.org/2000/svg"><g clip-path="url(#clip0)" fill="#000"><path d="M35.609 0H6.39A6.398 6.398 0 0 0 0 6.391v20.087a6.398 6.398 0 0 0 6.391 6.392h19.71l8.861 8.863a.92.92 0 0 0 .996.198.913.913 0 0 0 .564-.844v-8.281C39.615 32.36 42 29.692 42 26.478V6.391A6.398 6.398 0 0 0 35.61 0zm4.565 26.478a4.57 4.57 0 0 1-4.565 4.565.913.913 0 0 0-.913.913v6.927l-7.571-7.573a.92.92 0 0 0-.647-.267H6.391a4.57 4.57 0 0 1-4.565-4.565V6.391a4.57 4.57 0 0 1 4.565-4.565H35.61a4.57 4.57 0 0 1 4.565 4.565v20.087z"/><path d="M21 21.913a2.742 2.742 0 0 0-2.74 2.74c0 1.51 1.23 2.738 2.74 2.738 1.51 0 2.74-1.229 2.74-2.739 0-1.51-1.23-2.739-2.74-2.739zm0 3.652a.915.915 0 0 1-.913-.913c0-.502.409-.913.913-.913s.913.411.913.913a.915.915 0 0 1-.913.913zM23.918 6.35a2.748 2.748 0 0 0-2.005-.872h-1.826a2.744 2.744 0 0 0-2.732 2.947l.773 8.997A2.88 2.88 0 0 0 21 20.087c1.497 0 2.754-1.17 2.858-2.65l.787-9.025a2.743 2.743 0 0 0-.727-2.061zm-1.092 1.918l-.789 9.027a1.047 1.047 0 0 1-1.052.966c-.544 0-.998-.424-1.039-.981l-.77-8.997a.91.91 0 0 1 .911-.979h1.826a.91.91 0 0 1 .668.29.896.896 0 0 1 .245.674z"/></g><defs><clipPath id="clip0"><path fill="#fff" d="M0 0h42v42H0z"/></clipPath></defs></svg>