<svg width="55" height="55" fill="none" xmlns="http://www.w3.org/2000/svg"><path d="M15.563 26.382a1.195 1.195 0 1 0 1.69 1.69l9.055-9.053v24.056a1.2 1.2 0 0 0 2.398 0V19.031l9.055 9.054a1.194 1.194 0 0 0 2.038-.852 1.228 1.228 0 0 0-.347-.85L28.359 15.288a1.188 1.188 0 0 0-.852-.348 1.236 1.236 0 0 0-.85.348L15.562 26.382z" fill="#CBCBCB"/><path d="M1.724 27.485a25.78 25.78 0 0 0 44.011 18.228c10.068-10.067 10.068-26.39 0-36.456C35.67-.81 19.347-.81 9.28 9.257a25.619 25.619 0 0 0-7.555 18.228zm49.168 0c0 12.892-10.493 23.385-23.385 23.385-12.891 0-23.384-10.493-23.384-23.385C4.123 14.594 14.616 4.1 27.507 4.1c12.892 0 23.385 10.494 23.385 23.385z" fill="#CBCBCB"/></svg>