<svg width="13" height="15" fill="none" xmlns="http://www.w3.org/2000/svg"><path fill-rule="evenodd" clip-rule="evenodd" d="M6.328.625a.625.625 0 0 1 .35 0l5.508 1.608c.266.078.45.323.45.6v3.3a8.681 8.681 0 0 1-5.938 8.236.625.625 0 0 1-.395 0A8.682 8.682 0 0 1 .365 6.13V2.833c0-.277.183-.522.45-.6L6.328.625zM1.615 3.302v2.83a7.434 7.434 0 0 0 4.886 6.982 7.431 7.431 0 0 0 4.884-6.981V3.302L6.503 1.876 1.615 3.302zm8.388 1.766a.625.625 0 0 1 0 .884L6.33 9.626a.625.625 0 0 1-.884 0L3.303 7.483a.625.625 0 0 1 .884-.884l1.7 1.7L9.12 5.07a.625.625 0 0 1 .884 0z" fill="#000" fill-opacity=".65"/></svg>