<svg width="121" height="121" viewBox="0 0 121 121" fill="none" xmlns="http://www.w3.org/2000/svg">
<path d="M43.5321 57.8016C45.3704 55.6681 46.483 52.892 46.483 49.8614C46.483 43.1459 41.0198 37.6826 34.3043 37.6826C27.5884 37.6826 22.1249 43.1459 22.1249 49.8614C22.1249 52.892 23.2378 55.6681 25.0762 57.8016C20.8059 60.0858 17.8941 64.5906 17.8941 69.7626V80.4014C17.8941 82.012 19.1995 83.3174 20.8101 83.3174H47.7981C49.4087 83.3174 50.7141 82.012 50.7141 80.4014V69.7626C50.7145 64.5906 47.8027 60.0858 43.5321 57.8016ZM34.3043 43.5146C37.8041 43.5146 40.6511 46.3619 40.6511 49.8614C40.6511 53.3395 37.8388 56.1735 34.3687 56.2082H34.2398C30.7695 56.1735 27.9568 53.3395 27.9568 49.8614C27.9571 46.3615 30.8044 43.5146 34.3043 43.5146ZM44.8825 77.4854H23.7264V69.7626C23.7264 65.5043 27.1902 62.0401 31.4482 62.0401H34.2155C34.2745 62.0401 34.3344 62.0401 34.3934 62.0401H37.1603C41.4186 62.0401 44.8828 65.5043 44.8828 69.7626V77.4854H44.8825ZM63.4304 47.653C63.4304 46.0424 64.7358 44.737 66.3464 44.737H82.1092C83.7198 44.737 85.0252 46.0424 85.0252 47.653C85.0252 49.2636 83.7198 50.569 82.1092 50.569H66.3464C64.7361 50.569 63.4304 49.2636 63.4304 47.653ZM108.655 14.3959H100.748C100.709 14.3952 100.671 14.3952 100.632 14.3959H85.4409C85.4023 14.3952 85.3638 14.3952 85.3252 14.3959H70.1342C70.0954 14.3952 70.0565 14.3952 70.0183 14.3959H54.826C54.7878 14.3952 54.7498 14.3952 54.7113 14.3959H39.52C39.4814 14.3952 39.4429 14.3952 39.4043 14.3959H24.2134C24.1748 14.3952 24.1362 14.3952 24.0977 14.3959H12.344C5.53745 14.3959 0 19.9337 0 26.7399V94.2591C0 101.066 5.53745 106.604 12.344 106.604H20.2521C20.2914 106.605 20.3299 106.604 20.3681 106.604H35.5591C35.5983 106.605 35.6369 106.604 35.6751 106.604H50.8667C50.905 106.604 50.9432 106.604 50.9814 106.604H66.1737C66.2119 106.604 66.2502 106.604 66.2884 106.604H81.4797C81.4991 106.604 81.5186 106.604 81.5377 106.604C81.5571 106.604 81.5766 106.604 81.5957 106.604H96.787C96.8255 106.604 96.8641 106.604 96.9023 106.604H108.655C115.462 106.604 120.999 101.066 120.999 94.2591V26.7399C121 19.9337 115.462 14.3959 108.655 14.3959ZM115.168 94.2591C115.168 97.8503 112.247 100.772 108.655 100.772H101.691L103.264 97.8004C104.018 96.3771 103.475 94.6126 102.052 93.8587C100.629 93.1047 98.8638 93.6481 98.1105 95.0714L95.0921 100.772H86.3844L87.9577 97.8004C88.7113 96.3771 88.1686 94.6126 86.7453 93.8587C85.3213 93.1051 83.5575 93.6478 82.8035 95.0711L79.7849 100.772H71.0771L72.6504 97.8004C73.404 96.3771 72.8613 94.6126 71.438 93.8587C70.0147 93.1051 68.2499 93.6478 67.4963 95.0711L64.4776 100.772H55.7698L57.3431 97.8004C58.0967 96.3771 57.5541 94.6126 56.1307 93.8587C54.7071 93.1051 52.9429 93.6478 52.189 95.0711L49.1703 100.772H40.4625L42.0358 97.8004C42.7895 96.3771 42.2468 94.6126 40.8234 93.8587C39.3995 93.1051 37.6356 93.6478 36.8817 95.0711L33.863 100.772H25.1565L26.7298 97.8004C27.4835 96.3771 26.9408 94.6126 25.5174 93.8587C24.0941 93.1051 22.3296 93.6478 21.5757 95.0711L18.557 100.772H12.344C8.75313 100.772 5.83197 97.8503 5.83197 94.2591V26.7399C5.83197 23.149 8.75346 20.2278 12.344 20.2278H19.3093L17.736 23.1989C16.9824 24.6222 17.5251 26.3867 18.9484 27.1407C20.3714 27.894 22.1359 27.3513 22.8901 25.9283L25.9088 20.2278H34.616L33.0426 23.1989C32.289 24.6222 32.8317 26.3867 34.255 27.1407C35.6783 27.894 37.4428 27.3513 38.1968 25.9283L41.2155 20.2278H49.9229L48.3496 23.1992C47.596 24.6226 48.139 26.3871 49.5623 27.1407C50.9853 27.894 52.7505 27.3513 53.5037 25.9283L56.5221 20.2278H65.2302L63.6569 23.1989C62.9033 24.6222 63.446 26.3867 64.8693 27.1407C66.2923 27.894 68.0571 27.3513 68.811 25.9283L71.8297 20.2278H80.5375L78.9642 23.1989C78.2105 24.6222 78.7533 26.3867 80.1766 27.1407C81.5999 27.894 83.3644 27.3513 84.1183 25.9283L87.137 20.2278H95.8448L94.2715 23.1989C93.5178 24.6222 94.0605 26.3867 95.4839 27.1407C96.9072 27.894 98.6717 27.3513 99.4256 25.9283L102.444 20.2278H108.657C112.248 20.2278 115.17 23.1493 115.17 26.7399V94.2591H115.168ZM103.603 73.3464C103.603 74.957 102.298 76.2623 100.687 76.2623H66.3464C64.7358 76.2623 63.4304 74.957 63.4304 73.3464C63.4304 71.7358 64.7358 70.4304 66.3464 70.4304H100.687C102.298 70.4304 103.603 71.7358 103.603 73.3464ZM103.603 61.7615C103.603 63.3721 102.298 64.6775 100.687 64.6775H66.3464C64.7358 64.6775 63.4304 63.3721 63.4304 61.7615C63.4304 60.1509 64.7358 58.8455 66.3464 58.8455H100.687C102.298 58.8455 103.603 60.1512 103.603 61.7615Z" fill="black"/>
</svg>
