<svg width="121" height="121" viewBox="0 0 121 121" fill="none" xmlns="http://www.w3.org/2000/svg">
<path d="M43.2559 96.0687C29.69 89.4902 20.9244 75.504 20.9244 60.4373C20.9244 47.1129 27.5687 34.764 38.6976 27.4037C40.1019 26.475 40.4873 24.5837 39.5586 23.1795C38.6299 21.7753 36.739 21.3898 35.3344 22.3185C34.7061 22.7344 34.0903 23.1632 33.4868 23.6059L27.4661 18.5536C23.989 15.6363 18.7862 16.0912 15.8687 19.5683L12.4407 23.6544C11.0304 25.3346 10.3594 27.4684 10.5511 29.6629C10.7432 31.8576 11.7745 33.8427 13.4548 35.2521L19.486 40.3132C18.0377 43.2657 16.9075 46.3797 16.1237 49.6014H8.23173C3.69283 49.6014 0 53.2942 0 57.8331V63.1676C0 67.7065 3.69283 71.3993 8.23173 71.3993H16.1556C16.9424 74.5919 18.0733 77.6913 19.5334 80.6475L13.4558 85.7479C11.7749 87.1579 10.7435 89.1427 10.5515 91.3378C10.3598 93.5322 11.0307 95.666 12.4404 97.3453L15.869 101.433C17.4951 103.37 19.8305 104.369 22.1817 104.369C24.0493 104.369 25.9274 103.738 27.4667 102.447L33.5667 97.328C35.7693 98.9375 38.1205 100.354 40.5957 101.554C42.1107 102.288 43.9339 101.656 44.6686 100.141C45.4032 98.6266 44.7705 96.803 43.2559 96.0687ZM8.23173 65.3031C7.05441 65.3031 6.09657 64.3452 6.09657 63.1679V57.8334C6.09657 56.6561 7.05441 55.6983 8.23173 55.6983H15.0721C14.9102 57.2624 14.8279 58.8438 14.8279 60.4373C14.8279 62.0699 14.9142 63.6936 15.0853 65.3031H8.23173ZM17.3732 30.5811C16.9407 30.2183 16.6748 29.7035 16.6247 29.1318C16.5749 28.5597 16.7473 28.0063 17.111 27.5731L20.5393 23.4867C20.961 22.9841 21.5666 22.725 22.1763 22.725C22.661 22.725 23.148 22.8886 23.5473 23.2235L28.7548 27.5938C26.4303 29.8373 24.366 32.3054 22.5841 34.954L17.3732 30.5811ZM23.548 97.7765C22.6454 98.5335 21.2953 98.4152 20.539 97.5143L17.1107 93.4266C16.7476 92.994 16.5749 92.4406 16.625 91.8685C16.6751 91.2968 16.941 90.782 17.3742 90.4182L22.6444 85.9955C24.451 88.6675 26.5248 91.1288 28.8276 93.3463L23.548 97.7765ZM112.768 49.6014H104.882C104.1 46.3742 102.971 43.2579 101.524 40.3054L107.545 35.2524C111.022 32.3352 111.477 27.1324 108.56 23.6547L105.131 19.5683C102.214 16.0912 97.011 15.636 93.5339 18.5536L87.5136 23.6056C86.718 23.0227 85.8993 22.4621 85.0604 21.926C83.6416 21.0196 81.7567 21.4349 80.8504 22.8537C79.944 24.2725 80.3592 26.1573 81.7781 27.0637C93.2349 34.3833 100.075 46.8593 100.075 60.4373C100.075 75.8102 91.0564 89.9163 77.0989 96.3746C75.5711 97.0814 74.9055 98.8935 75.6124 100.421C76.3193 101.949 78.1316 102.615 79.6588 101.908C82.425 100.628 85.0228 99.0876 87.4289 97.3243L93.5336 102.447C95.0252 103.699 96.8745 104.368 98.8065 104.368C99.0507 104.368 99.2959 104.357 99.5421 104.336C101.737 104.144 103.722 103.113 105.131 101.432L108.56 97.3463C111.478 93.8689 111.023 88.6665 107.545 85.7486L101.441 80.6258C102.89 77.6937 104.029 74.602 104.826 71.3996H112.768C117.307 71.3996 121 67.7068 121 63.1679V57.8334C121 53.2942 117.307 49.6014 112.768 49.6014ZM103.627 90.4182C104.529 91.1752 104.647 92.5249 103.89 93.4272L100.461 97.5133C100.098 97.9458 99.5834 98.2117 99.0114 98.2615C98.4376 98.3109 97.8859 98.1392 97.453 97.7758L92.1609 93.3351C94.4752 91.0994 96.5429 88.6299 98.3336 85.9759L103.627 90.4182ZM98.4258 34.9469C96.6439 32.3003 94.5764 29.8326 92.2496 27.5904L97.453 23.2242C98.355 22.4676 99.7043 22.5854 100.461 23.487L103.89 27.5731C104.647 28.4754 104.529 29.8254 103.627 30.5824L98.4258 34.9469ZM114.903 63.1676C114.903 64.3449 113.946 65.3027 112.768 65.3027H105.909C106.083 63.6973 106.171 62.0729 106.171 60.437C106.171 58.8427 106.089 57.261 105.929 55.6979H112.768C113.945 55.6979 114.903 56.6558 114.903 57.8331V63.1676H114.903ZM81.0211 60.437C81.0211 53.2928 77.3933 46.7722 71.316 42.9947C69.8864 42.106 69.4477 40.2265 70.3365 38.7965C71.2252 37.3672 73.1047 36.9279 74.5347 37.817C82.4138 42.7146 87.1176 51.1705 87.1176 60.437C87.1176 66.7375 84.8758 72.8493 80.8056 77.6473C80.2028 78.3579 79.3442 78.7237 78.4798 78.7237C77.7828 78.7237 77.0823 78.4859 76.5093 77.9999C75.2253 76.9109 75.0678 74.9871 76.1567 73.7035C79.2934 70.0056 81.0211 65.2946 81.0211 60.437ZM45.1868 74.0977C46.3082 75.3536 46.1988 77.2805 44.9429 78.4019C44.3617 78.9208 43.6362 79.1762 42.9138 79.1762C42.0755 79.1762 41.2409 78.8324 40.6387 78.158C36.2824 73.2777 33.8831 66.9844 33.8831 60.4373C33.8831 50.5849 39.2873 41.5813 47.9868 36.9398C49.472 36.1476 51.3186 36.7088 52.1111 38.1943C52.9037 39.6795 52.3421 41.5261 50.8566 42.3187C44.1476 45.898 39.98 52.8407 39.98 60.4373C39.9796 65.485 41.8289 70.3365 45.1868 74.0977ZM63.4971 70.2559C63.531 70.0736 63.5486 69.886 63.5486 69.694V31.9409L74.6085 25.5555C75.5518 25.0108 76.1326 24.0046 76.1326 22.9157V8.38414C76.1326 7.29522 75.5518 6.28861 74.6085 5.74432L68.3168 2.11178C66.8591 1.27012 64.9942 1.76936 64.1529 3.22746C63.3112 4.68555 63.8108 6.54975 65.2685 7.39141L70.0361 10.144V21.1554L60.5003 26.661L50.964 21.1558V10.1444L55.7321 7.39175C57.1902 6.55009 57.6898 4.68589 56.8482 3.22779C56.0065 1.7697 54.142 1.27012 52.6842 2.11178L46.3915 5.74432C45.4482 6.28861 44.8674 7.29522 44.8674 8.38414V22.9157C44.8674 24.0046 45.4482 25.0112 46.3915 25.5555L57.4521 31.9409V69.694C57.4521 69.886 57.4697 70.0736 57.5035 70.2559C53.3785 71.5361 50.3746 75.3878 50.3746 79.9281V112.24C50.3746 116.132 53.5401 119.297 57.4307 119.297H63.5679C67.4596 119.297 70.6254 116.132 70.6254 112.24V79.9281C70.6257 75.3878 67.6218 71.5361 63.4971 70.2559ZM64.5292 112.24C64.5292 112.761 64.0892 113.201 63.5683 113.201H57.4311C56.9108 113.201 56.4715 112.761 56.4715 112.24V79.9281C56.4715 77.7069 58.2788 75.8999 60.5007 75.8999C62.7225 75.8999 64.5298 77.7069 64.5298 79.9281V112.24H64.5292Z" fill="black"/>
</svg>
