<svg width="121" height="121" viewBox="0 0 121 121" fill="none" xmlns="http://www.w3.org/2000/svg">
<g clip-path="url(#clip0)">
<path d="M11.1644 31.2549C14.8944 32.8989 19.7891 33.8043 24.9474 33.8043C30.1061 33.8043 35.0015 32.8989 38.7311 31.2549C44.7883 28.5854 45.6927 24.9565 45.6927 23.0311C45.6927 21.1057 44.7883 17.4771 38.7311 14.8076C35.0011 13.1636 30.1057 12.2582 24.9474 12.2582C19.7891 12.2582 14.8944 13.1636 11.1644 14.8076C5.10716 17.4771 4.20275 21.1057 4.20275 23.0311C4.20275 24.9565 5.10683 28.5854 11.1644 31.2549ZM24.9474 18.0865C34.055 18.0865 39.8641 21.333 39.8641 23.0311C39.8641 24.7292 34.055 27.976 24.9474 27.976C15.8402 27.976 10.0314 24.7292 10.0314 23.0311C10.0314 21.333 15.8399 18.0865 24.9474 18.0865ZM43.3798 37.3141C44.5354 38.4345 44.5639 40.2796 43.4435 41.4353C40.0591 44.9263 32.9718 47.0952 24.9471 47.0952C16.9224 47.0952 9.83513 44.9266 6.4513 41.4353C5.33124 40.2796 5.35973 38.4345 6.51574 37.3141C7.67175 36.194 9.5165 36.2232 10.6366 37.3785C12.4515 39.2511 17.7041 41.2665 24.9471 41.2665C32.1901 41.2665 37.443 39.2508 39.2586 37.3782C40.3793 36.2225 42.2241 36.1944 43.3798 37.3141ZM46.0444 68.0131H49.3223C50.932 68.0131 52.2366 69.3177 52.2366 70.9274C52.2366 72.537 50.932 73.8417 49.3223 73.8417H46.0444C44.4347 73.8417 43.1301 72.537 43.1301 70.9274C43.1301 69.3177 44.4351 68.0131 46.0444 68.0131ZM52.6479 24.2072C52.4963 23.8293 52.428 23.4287 52.4407 23.0317C52.4196 22.3631 52.6272 21.684 53.0776 21.1206C53.8065 20.2094 54.6325 19.1758 55.4288 18.2108C56.1399 17.3482 56.7882 16.5714 57.3785 15.8639C57.8609 15.2859 58.3042 14.7545 58.7119 14.2603C59.7358 13.0182 61.5725 12.8414 62.8143 13.8653C64.0561 14.8892 64.2329 16.7258 63.209 17.9677C62.7945 18.4705 62.3438 19.0107 61.8532 19.5984C61.6881 19.7959 61.5184 19.9993 61.3442 20.2084H74.3031C75.9128 20.2084 77.2174 21.5131 77.2174 23.1227C77.2174 24.7324 75.9128 26.037 74.3031 26.037H61.496C61.6207 26.1866 61.7431 26.333 61.8629 26.4768C62.3496 27.06 62.7971 27.5962 63.209 28.0955C64.2329 29.3373 64.0564 31.174 62.8146 32.1979C62.2716 32.6457 61.6149 32.864 60.9621 32.864C60.1218 32.864 59.2883 32.5026 58.7119 31.8038C58.3072 31.3126 57.8668 30.7851 57.3878 30.2113C56.7949 29.5009 56.1434 28.7205 55.4278 27.852C54.6886 26.955 53.9321 26.0118 53.0922 24.9617C52.918 24.7476 52.7739 24.509 52.6654 24.2509C52.6644 24.2483 52.6634 24.246 52.6625 24.2438C52.6625 24.2435 52.6621 24.2428 52.6621 24.2425C52.6615 24.2405 52.6605 24.2383 52.6595 24.2363C52.6592 24.2354 52.6589 24.2347 52.6586 24.2337C52.6579 24.2321 52.6573 24.2305 52.6566 24.2289C52.6563 24.2276 52.6557 24.2263 52.655 24.225C52.6544 24.2237 52.654 24.2227 52.6537 24.2214C52.6531 24.2198 52.6521 24.2179 52.6515 24.2163C52.6515 24.2156 52.6511 24.215 52.6508 24.2143C52.6498 24.212 52.6489 24.2098 52.6479 24.2075C52.6482 24.2075 52.6482 24.2075 52.6479 24.2072ZM20.6679 88.2484C20.6679 89.858 19.3633 91.1627 17.7536 91.1627H11.1178C9.50808 91.1627 8.20345 89.858 8.20345 88.2484C8.20345 86.6387 9.50808 85.3341 11.1178 85.3341H17.7536C19.3633 85.3341 20.6679 86.6387 20.6679 88.2484ZM104.31 94.9947C104.31 96.6043 103.005 97.909 101.396 97.909C99.7861 97.909 98.4779 96.6043 98.4779 94.9947C98.4779 93.385 99.779 92.0804 101.388 92.0804H101.396C103.005 92.0804 104.31 93.385 104.31 94.9947ZM20.6679 77.7815C20.6679 79.3912 19.3633 80.6958 17.7536 80.6958H2.91431C1.30464 80.6958 0 79.3912 0 77.7815C0 76.1718 1.30464 74.8672 2.91431 74.8672H17.7536C19.3633 74.8672 20.6679 76.1718 20.6679 77.7815ZM78.3424 92.0797H61.5158C60.1752 85.8943 54.6597 81.2469 48.0789 81.2469C41.8695 81.2469 36.6085 85.3846 34.9085 91.0484C34.7152 90.8563 34.5669 90.653 34.4672 90.4526C34.3561 90.2301 34.2994 89.9989 34.2994 89.7651V70.3322C34.2994 68.7225 32.9948 67.4179 31.3851 67.4179C29.7755 67.4179 28.4708 68.7225 28.4708 70.3322V89.7651C28.4708 90.9114 28.7341 92.0195 29.2509 93.0537C30.2858 95.1329 32.2118 96.6914 34.5475 97.4317C35.7009 103.854 41.3297 108.742 48.0786 108.742C54.6597 108.742 60.1759 104.094 61.5158 97.9086H78.342C79.9517 97.9086 81.2563 96.604 81.2563 94.9943C81.2563 93.3847 79.952 92.0797 78.3424 92.0797ZM48.0789 102.913C43.7272 102.913 40.1841 99.3849 40.1601 95.0384C40.1607 95.0021 40.1607 94.9658 40.1601 94.9296C40.1947 90.5924 43.7337 87.0755 48.0786 87.0755C52.4452 87.0755 55.9981 90.6281 55.9981 94.9947C55.9984 99.3609 52.4455 102.913 48.0789 102.913ZM120.977 76.4037C120.791 68.1708 118.913 66.507 111.928 60.318C111.134 59.6147 110.262 58.8424 109.305 57.9833C108.669 57.4124 108.03 56.8027 107.355 56.1567C106.295 55.1441 105.199 54.0969 103.984 53.0802C103.047 52.2952 102.16 51.5482 101.316 50.8374C90.4604 41.6962 85.9668 37.9125 74.7189 37.9125H54.5998C52.9902 37.9125 51.6855 39.2171 51.6855 40.8268C51.6855 42.4365 52.9902 43.7411 54.5998 43.7411H74.7189C83.8397 43.7411 86.7466 46.1891 97.5619 55.296C98.4093 56.0097 99.3001 56.76 100.242 57.5491C101.311 58.4435 102.336 59.4233 103.328 60.3711C104.007 61.0194 104.708 61.6897 105.413 62.3214C106.38 63.1896 107.261 63.9699 108.063 64.6804C109.608 66.0491 110.81 67.1145 111.747 68.0134H70.3513C69.7251 67.7919 67.4263 66.3989 63.0999 62.0954C59.6649 58.6785 57.2949 55.771 56.8989 55.0609C56.262 53.619 54.5878 52.9413 53.1223 53.5461C51.6344 54.1601 50.9259 55.8636 51.5398 57.3516C52.3746 59.3744 56.9144 64.1775 59.198 66.4345C66.6936 73.842 69.1432 73.842 70.1894 73.842H115.022C115.097 74.5974 115.126 75.4708 115.15 76.5351C115.185 78.0583 115.17 81.3224 115.159 83.7059L115.151 85.3655C115.145 86.6047 115.139 88.0194 115.139 89.7648C115.139 90.2165 114.921 90.653 114.556 91.0234C112.848 85.3729 107.593 81.2469 101.392 81.2469C93.8115 81.2469 87.6442 87.4142 87.6442 94.9947C87.6442 102.575 93.8115 108.742 101.392 108.742C108.147 108.742 113.78 103.845 114.927 97.4152C118.46 96.2676 120.967 93.25 120.967 89.7651C120.967 88.0311 120.974 86.6254 120.98 85.3936L120.987 83.7328C120.999 81.1812 121.013 78.0056 120.977 76.4037ZM109.312 95.0011C109.308 99.3648 105.757 102.914 101.392 102.914C97.0256 102.914 93.4728 99.3613 93.4728 94.995C93.4728 90.6284 97.0253 87.0758 101.392 87.0758C105.749 87.0758 109.295 90.6115 109.312 94.9642C109.311 94.9762 109.311 94.9888 109.312 95.0011ZM50.9971 94.9947C50.9971 96.6043 49.6925 97.909 48.0828 97.909C46.4731 97.909 45.1646 96.6043 45.1646 94.9947C45.1646 93.385 46.4657 92.0804 48.075 92.0804H48.0825C49.6921 92.0804 50.9971 93.385 50.9971 94.9947ZM43.4439 54.9822C40.0597 58.4729 32.9724 60.6418 24.9474 60.6418C16.9221 60.6418 9.83481 58.4732 6.45162 54.9819C5.33156 53.8262 5.36038 51.9808 6.51606 50.8608C7.67207 49.7404 9.51715 49.7698 10.6372 50.9252C12.4519 52.7975 17.7041 54.8129 24.9474 54.8129C32.1908 54.8129 37.4436 52.7975 39.2586 50.9249C40.379 49.7698 42.2241 49.7404 43.3798 50.8611C44.5354 51.9812 44.5643 53.8262 43.4439 54.9822Z" fill="black"/>
</g>
<defs>
<clipPath id="clip0">
<rect width="121" height="121" fill="white"/>
</clipPath>
</defs>
</svg>
