<svg width="42" height="42" viewBox="0 0 42 42" fill="none" xmlns="http://www.w3.org/2000/svg">
<g clip-path="url(#clip0)">
<path d="M35.6087 0H6.39133C2.86693 0 0 2.86693 0 6.39133V26.4783C0 30.0026 2.86693 32.8695 6.39133 32.8695H26.1003L34.9623 41.7334C35.1376 41.9069 35.3714 42 35.6088 42C35.7256 42 35.8443 41.9763 35.9576 41.9306C36.299 41.7899 36.5218 41.4558 36.5218 41.0869V32.8056C39.6152 32.3601 42.0001 29.6922 42.0001 26.4782V6.39133C42 2.86693 39.133 0 35.6087 0ZM40.1739 26.4782C40.1739 28.9964 38.125 31.0434 35.6087 31.0434C35.1047 31.0434 34.6956 31.4525 34.6956 31.9565V38.8828L27.1246 31.31C26.953 31.1402 26.7211 31.0434 26.4782 31.0434H6.39133C3.87501 31.0434 1.82614 28.9963 1.82614 26.4782V6.39133C1.82614 3.87313 3.87501 1.82614 6.39133 1.82614H35.6087C38.125 1.82614 40.1739 3.87321 40.1739 6.39133V26.4782Z" fill="black"/>
<path d="M21 21.9131C19.4898 21.9131 18.2608 23.142 18.2608 24.6522C18.2608 26.1624 19.4898 27.3913 21 27.3913C22.5102 27.3913 23.7391 26.1624 23.7391 24.6522C23.7391 23.142 22.5102 21.9131 21 21.9131ZM21 25.5653C20.496 25.5653 20.0869 25.1544 20.0869 24.6522C20.0869 24.15 20.496 23.7391 21 23.7391C21.504 23.7391 21.913 24.15 21.913 24.6522C21.913 25.1544 21.504 25.5653 21 25.5653Z" fill="black"/>
<path d="M23.9181 6.35087C23.4013 5.79577 22.6708 5.47803 21.913 5.47803H20.087C19.3292 5.47803 18.6006 5.79577 18.0837 6.35087C17.567 6.90417 17.3021 7.65469 17.3551 8.42533L18.1275 17.4224C18.2334 18.9162 19.4898 20.0867 21 20.0867C22.4973 20.0867 23.7537 18.9161 23.8578 17.437L24.6449 8.41249C24.6997 7.65658 24.4348 6.90605 23.9181 6.35087ZM22.8261 8.26826L22.0372 17.2946C21.9989 17.837 21.5424 18.2606 20.9854 18.2606C20.4413 18.2606 19.9866 17.837 19.9463 17.28L19.1757 8.28289C19.1575 8.02542 19.2432 7.78069 19.4185 7.59443C19.5938 7.40817 19.8312 7.30408 20.0869 7.30408H21.913C22.1687 7.30408 22.4061 7.40817 22.5814 7.59443C22.7567 7.78069 22.8425 8.02542 22.8261 8.26826Z" fill="black"/>
</g>
<defs>
<clipPath id="clip0">
<rect width="42" height="42" fill="white"/>
</clipPath>
</defs>
</svg>
