<svg width="55" height="55" viewBox="0 0 55 55" fill="none" xmlns="http://www.w3.org/2000/svg">
<path d="M15.5633 26.3822C15.0964 26.8487 15.0964 27.6055 15.5633 28.0727C16.0297 28.5396 16.7869 28.5396 17.2538 28.0727L26.3079 19.0186L26.3079 43.0751C26.3079 43.7373 26.845 44.2744 27.5072 44.2744C28.1697 44.2744 28.7065 43.7373 28.7065 43.0751L28.7064 19.0307L37.7605 28.0848C37.9844 28.3094 38.289 28.4356 38.606 28.4356C38.9234 28.4356 39.2272 28.3094 39.4515 28.0848C39.678 27.8601 39.8034 27.5525 39.7993 27.2333C39.7978 26.9151 39.6731 26.6098 39.4515 26.3822L28.359 15.2893C28.1329 15.0636 27.8261 14.9378 27.5072 14.9412C27.189 14.9434 26.8848 15.0681 26.6561 15.2893L15.5633 26.3822Z" fill="#CBCBCB"/>
<path d="M1.72407 27.4852C1.7222 37.9136 8.00365 47.3159 17.6384 51.3066C27.2736 55.2965 38.3634 53.0895 45.7352 45.7132C55.8026 35.6458 55.8026 19.3239 45.7352 9.25686C35.6685 -0.810213 19.3466 -0.810212 9.27917 9.25686C4.42798 14.0806 1.70755 20.6441 1.72407 27.4852ZM50.8921 27.4852C50.8921 40.3768 40.3987 50.8698 27.5072 50.8698C14.6156 50.8698 4.12262 40.3768 4.12262 27.4852C4.12262 14.5937 14.6156 4.10032 27.5072 4.10032C40.3987 4.10032 50.8921 14.5937 50.8921 27.4852Z" fill="#CBCBCB"/>
</svg>
