<svg width="13" height="15" viewBox="0 0 13 15" fill="none" xmlns="http://www.w3.org/2000/svg">
<path fill-rule="evenodd" clip-rule="evenodd" d="M6.32765 0.624515C6.44205 0.591129 6.56361 0.591145 6.678 0.62456L12.1856 2.23343C12.4521 2.31129 12.6353 2.55568 12.6353 2.83336V6.13276C12.6353 9.86972 10.2438 13.1873 6.69848 14.3686C6.57025 14.4113 6.43163 14.4113 6.30339 14.3686C2.75715 13.1874 0.364914 9.86906 0.364914 6.13123V2.83336C0.364914 2.55562 0.548199 2.31119 0.814818 2.23338L6.32765 0.624515ZM1.61491 3.30203V6.13123C1.61491 9.26102 3.57423 12.0472 6.50088 13.1138C9.42667 12.0472 11.3853 9.26171 11.3853 6.13276V3.3019L6.50267 1.87558L1.61491 3.30203ZM10.0033 5.06826C10.2474 5.31234 10.2474 5.70807 10.0033 5.95214L6.32981 9.62561C6.2126 9.74282 6.05363 9.80867 5.88787 9.80867C5.72211 9.80867 5.56314 9.74282 5.44593 9.62561L3.30307 7.48275C3.059 7.23868 3.059 6.84295 3.30307 6.59887C3.54715 6.35479 3.94288 6.35479 4.18696 6.59887L5.88787 8.29979L9.1194 5.06826C9.36348 4.82418 9.75921 4.82418 10.0033 5.06826Z" fill="black" fill-opacity="0.65"/>
</svg>
